<svg xmlns="http://www.w3.org/2000/svg" viewBox="0 0 497.98 190.99"><defs><style>.cls-1{fill:#069;}.cls-2{fill:#491f53;}.cls-3{fill:#4c979f;}</style></defs><g id="Layer_2" data-name="Layer 2"><g id="g7130"><path id="path7134" class="cls-1" d="M295.13,17.44h0a4.29,4.29,0,0,0-3.83-2.35h-3.5a2.37,2.37,0,0,0-2.12,3.43l5.85,11.67,5.34,9.09a57.74,57.74,0,0,0,16.66,18l34.78,24.34a43.48,43.48,0,0,1,11.84,12.41L371.5,112.3l1.66-14.7L364,81.28a33.81,33.81,0,0,0-10.75-11.62L315.59,44.5l-3.65-3.33a65.74,65.74,0,0,1-14.37-18.91l-2.44-4.82"/><path id="path7136" class="cls-1" d="M315.75,153.8h0l-12.57-11.46-7.55-18.5.27-7.08-3.66,12.67,2,7.74a36.27,36.27,0,0,0,15.35,21.42L342.47,180a19.94,19.94,0,0,0,10.88,3.23h1.35a3.33,3.33,0,0,0,1.65-6.23l-40.6-23.2"/><path id="path7138" class="cls-1" d="M370.75,39.94h0l.15.27a5.13,5.13,0,0,1,.37,3.93l-1.42,4.64a1.79,1.79,0,0,1-3.12.57l-18.82-24.2A3.82,3.82,0,0,1,351.12,19l5.85.3a5.1,5.1,0,0,1,4.25,2.7l9.53,17.94"/><path id="path7140" class="cls-2" d="M360.49,27.43h0a2.64,2.64,0,0,1-2.61,3.87l-27.55-2.84a2.44,2.44,0,0,0-.54,0l-30.88,3.16a2.63,2.63,0,0,1-2.66-1.49L293,23.32a2.65,2.65,0,0,1,2.89-3.74L329,26.06a2.7,2.7,0,0,0,.8,0l25.83-2.86a3.67,3.67,0,0,1,3.66,1.93l1.2,2.27"/><path id="path7142" class="cls-2" d="M368.93,45.64h0a2.56,2.56,0,0,1,.37,1.13h0a2.65,2.65,0,0,1-2.91,2.88l-22.91-2.38a2.69,2.69,0,0,0-.49,0l-29.25,2.41a2.63,2.63,0,0,1-2-.69l-2.58-2.36a2.65,2.65,0,0,1,2-4.59l31.2,2.77a2.84,2.84,0,0,0,.82-.06l19.2-4.38a4.16,4.16,0,0,1,4.49,1.91l2,3.37"/><path id="path7144" class="cls-2" d="M333.43,61.13l15.79,2.63a2.55,2.55,0,0,0,1.34-.12L357,61.29a2.64,2.64,0,0,1,3.4,3.36l-.12.36a2.64,2.64,0,0,1-2.71,1.77l-7.14-.56a2.69,2.69,0,0,0-1.09.14l-8.39,3a2.63,2.63,0,0,1-2.77-.63l-5.71-5.8a1,1,0,0,1,.92-1.77"/><path id="path7146" class="cls-2" d="M299.46,141.61h0a2.64,2.64,0,0,0,3,1.77l16.4-3.17a2.76,2.76,0,0,1,.64,0l12.17.65a2.64,2.64,0,0,0,2.5-1.44l.43-.85a2.65,2.65,0,0,0-3-3.77l-11.91,3a2.56,2.56,0,0,1-1,0L299.76,135a1.61,1.61,0,0,0-1.78,2.1l1.48,4.55"/><path id="path7148" class="cls-2" d="M355.22,82.12l-4.11,2a2.6,2.6,0,0,1-1.2.26l-16.81-.23a2.64,2.64,0,0,0-2.61,2L329.58,90A2.65,2.65,0,0,0,333,93.14L350.59,87a2.7,2.7,0,0,1,1.38-.1l4.29.83a2.65,2.65,0,0,0,2.74-4l-.39-.6a2.64,2.64,0,0,0-3.39-1"/><path id="path7150" class="cls-2" d="M369.22,101.21h0a2.65,2.65,0,0,1-2.57,3.57l-21-.73a2.43,2.43,0,0,0-.6,0l-34.18,6.71a2.65,2.65,0,0,1-2.72-4l4.5-6.84a2.69,2.69,0,0,1,2.51-1.18L345,102a2.9,2.9,0,0,0,.78,0l20-3.77a2.69,2.69,0,0,1,3,1.71l.47,1.28"/><path id="path7152" class="cls-2" d="M341.09,171.26h0a2.65,2.65,0,0,1-1.74,4.81l-18.17-1.3-.65,0-19.83,2.8a2.65,2.65,0,0,1-2.62-4l2.33-3.79a2.65,2.65,0,0,1,2.93-1.17l16.89,4.46a2.72,2.72,0,0,0,1.3,0l16.34-2.77a3.64,3.64,0,0,1,2.74.61l.48.33"/><path id="path7154" class="cls-2" d="M360.6,114l-5.09,10.18a2.65,2.65,0,0,1-2.65,1.44l-27.7-2.94a2.74,2.74,0,0,0-.7,0l-27,4.32a2.65,2.65,0,0,1-2.71-4l1.6-2.75a2.65,2.65,0,0,1,2.46-1.31l25.64,1.64a2.1,2.1,0,0,0,.66,0L360.6,114h0"/><path id="path7156" class="cls-3" d="M365.78,51.47l5.72-8.72-.31,13.07a6.56,6.56,0,0,1-1.37,3.85l-5.93,7.67A72.17,72.17,0,0,1,348.63,82l-35.25,25a36.14,36.14,0,0,0-6,5.38s-12.14,12.33-15.13,17c.47-2.42.59-3.72.59-3.72a44.28,44.28,0,0,1,8.85-20.26l2.94-3.75A37.19,37.19,0,0,1,312.75,94l34.57-23.92A53.83,53.83,0,0,0,355,63.71l5-5.08a45.64,45.64,0,0,0,5.78-7.16h0"/><path id="path7158" class="cls-3" d="M342.67,126.74l-23.2,16a70.13,70.13,0,0,0-18.9,19.45l-13.08,20.11a1.35,1.35,0,0,0,1.13,2.09h6.11a4.31,4.31,0,0,0,3.68-2.09l3.16-5.3a79,79,0,0,1,22-23.86l23.92-17a135.17,135.17,0,0,0,18.26-15.6l3.92-4a10.59,10.59,0,0,0,3-7l.45-12,0,.05a31.22,31.22,0,0,1-6.83,10l-1,1a27,27,0,0,1-2.33,2.08l-20.33,16"/><path id="path7160" class="cls-3" d="M7.67,8V187.21H46.24V83.66l50.5,103.55h45.79V8H104V111.3L53.14,8Z"/><path id="path7162" class="cls-3" d="M190.54,109.12v46.71H215.3q15.69,0,23.17-6T246,131.43q0-22.31-31.88-22.31Zm0-30.16H212.6q15.45,0,22.38-4.78t6.92-15.81q0-10.3-7.54-14.78t-23.84-4.47h-20V79Zm-38-71h55.78q38.13,0,55.35,10.85t17.23,34.51q0,16.06-7.54,26.36a30.15,30.15,0,0,1-20,12.38v1.23q17,3.8,24.58,14.22t7.53,27.7q0,24.53-17.71,38.25t-48.12,13.73H152.53V8"/><path id="path7164" class="cls-3" d="M494.92,136.32q0,23.66-17.47,37.27t-48.61,13.62q-28.68,0-50.75-10.51V142.29q18.15,7.89,30.71,11.11a93.16,93.16,0,0,0,23,3.23q12.49,0,19.18-4.66t6.68-13.86a15.06,15.06,0,0,0-2.94-9.14,32.56,32.56,0,0,0-8.64-7.7q-5.7-3.7-23.23-11.83Q406.4,101.91,398.2,95a54.27,54.27,0,0,1-13.12-16.13q-4.9-9.19-4.9-21.5,0-23.18,16.12-36.44T440.86,7.65c9.32,0,14.77,1.27,23.17,3.64,9.35,2.64,14.13,3.72,23.15,7.18l.49,35.14a99.9,99.9,0,0,0-28.21-13.38c-6.5-2-13.78-1.76-19.83-1.76q-10.78,0-16.55,4.9a16,16,0,0,0-5.76,12.79,15.55,15.55,0,0,0,2.33,8.54,25.18,25.18,0,0,0,7.42,7q5.08,3.41,24.09,12.24,25.13,11.72,34.45,23.48t9.31,28.85"/></g></g></svg>